#!OML:ASF I:\Actors\actors\Patient Classification 1\Patient 1\Session 1\Subject1.ASF
:FULLY-SPECIFIED
:DEGREES
657
root 0.0934093 17.6496 8.41946 12.2962 -0.694447 -7.60723
lowerback 3.86073 -1.64896 10.1481
upperback 1.08525 -1.72772 5.83192
thorax -1.15771 -0.879029 0.465368
lowerneck 5.28262 -16.5565 -15.3606
upperneck 1.72563 -23.9711 23.8509
head 4.52693 -12.1075 8.32961
rclavicle -2.38542e-015 4.21423e-014
rhumerus -25.1794 47.7957 -67.7687
rradius 145.467
rwrist -31.7444
rhand 69.8318 -57.3048
rfingers 7.12502
rthumb 73.7032 10.2441
lclavicle -2.38542e-015 4.21423e-014
lhumerus -47.3107 -43.7248 92.0005
lradius 144.835
lwrist 21.1249
lhand 5.99403 -40.9663
lfingers 7.12502
lthumb 31.3176 -13.6258
rfemur -11.2283 21.0651 22.0304
rtibia 9.35781
rfoot -13.0857 -23.5745
rtoes -2.29189
lfemur -6.54863 -26.5761 -6.30417
ltibia 1.51264
lfoot -11.123 36.5204
ltoes -6.1477
658
root 0.0742587 17.6261 8.45639 11.8887 -0.426921 -7.12584
lowerback 3.67099 -1.70948 9.65972
upperback 1.40512 -1.88937 5.65475
thorax -0.718876 -0.937045 0.542595
lowerneck 4.91737 -16.6902 -15.5539
upperneck 1.45786 -24.1209 24.1876
head 4.61228 -12.1691 8.39793
rclavicle 6.36111e-015 -8.0309e-014
rhumerus -29.0874 41.7535 -76.1183
rradius 145.107
rwrist -30.6186
rhand 73.0515 -61.9002
rfingers 7.12502
rthumb 72.2249 15.005
lclavicle 6.36111e-015 -8.0309e-014
lhumerus -46.7582 -39.4755 96.8398
lradius 144.043
lwrist 21.604
lhand 8.14026 -40.7197
lfingers 7.12502
lthumb 33.3604 -13.7962
rfemur -10.4742 21.1516 21.7755
rtibia 9.22474
rfoot -13.5726 -23.7512
rtoes -1.72144
lfemur -5.90283 -27.0126 -7.14244
ltibia 1.4436
lfoot -11.0124 36.6691
ltoes -7.01067
659
root 0.0594388 17.587 8.47856 11.4516 -0.388658 -6.46379
lowerback 3.93619 -1.69975 8.93004
upperback 1.49916 -1.87693 5.45223
thorax -0.754981 -0.930965 0.736003
lowerneck 4.92107 -16.6952 -15.7438
upperneck 1.17251 -24.1291 24.5906
head 4.61204 -12.1864 8.54933
rclavicle -1.07344e-014 -1.51076e-014
rhumerus -31.6132 38.7518 -81.9774
rradius 144.685
rwrist -30.9029
rhand 73.5348 -64.4942
rfingers 7.12502
rthumb 71.965 13.6721
lclavicle -1.07344e-014 -1.51076e-014
lhumerus -47.6873 -37.8076 101.321
lradius 143.046
lwrist 23.5802
lhand 9.12687 -41.0272
lfingers 7.12502
lthumb 34.2977 -14.31
rfemur -9.9035 21.0414 21.2152
rtibia 9.25751
rfoot -13.8826 -23.5953
rtoes -1.79438
lfemur -5.17981 -27.7029 -8.27734
ltibia 1.34026
lfoot -10.9564 37.1586
ltoes -7.22043
660
root 0.0540591 17.5415 8.48486 10.8804 -0.446934 -6.29694
lowerback 4.6797 -1.74761 8.64599
upperback 1.38453 -1.84236 5.40918
thorax -1.28318 -0.931284 0.87113
lowerneck 5.28617 -16.5313 -15.7559
upperneck 1.3219 -23.9764 24.682
head 4.57788 -12.1303 8.64162
rclavicle 3.97569e-015 -4.13472e-014
rhumerus -33.3781 38.7414 -85.7877
rradius 143.999
rwrist -32.8416
rhand 72.6123 -65.216
rfingers 7.12502
rthumb 72.4532 10.5108
lclavicle 3.97569e-015 -4.13472e-014
lhumerus -48.6877 -37.9736 104.48
lradius 142.078
lwrist 25.5906
lhand 9.83679 -40.9567
lfingers 7.12502
lthumb 34.9715 -14.394
rfemur -9.2954 20.8013 21.2441
rtibia 9.37308
rfoot -13.964 -23.2628
rtoes -2.07703
lfemur -4.24408 -28.4278 -8.9499
ltibia 1.16563
lfoot -11.1792 37.738
ltoes -6.47937
661
root 0.0554713 17.5124 8.48191 10.3991 -0.575631 -6.65304
lowerback 5.53931 -1.83673 8.92044
upperback 1.09413 -1.80129 5.49818
thorax -2.07176 -0.939441 0.846738
lowerneck 5.47822 -16.3413 -15.6626
upperneck 2.43865 -23.8974 24.2889
head 4.79032 -12.0567 8.52417
rclavicle 3.18055e-015 -2.54444e-014
rhumerus -34.5304 42.1085 -87.7841
rradius 143.392
rwrist -35.0249
rhand 69.7403 -66.0255
rfingers 7.12502
rthumb 73.7381 1.23392
lclavicle 3.18055e-015 -2.54444e-014
lhumerus -49.2572 -39.5674 105.75
lradius 141.528
lwrist 26.5473
lhand 11.1658 -38.5575
lfingers 7.12502
lthumb 36.2312 -12.2981
rfemur -8.84392 20.6795 21.8401
rtibia 9.56588
rfoot -13.9776 -22.9419
rtoes -1.9004
lfemur -3.41979 -28.5968 -8.90505
ltibia 0.918353
lfoot -11.3082 37.9278
ltoes -5.89777
662
root 0.0562403 17.5198 8.47427 10.4742 -0.830748 -6.89616
lowerback 5.60347 -1.81825 8.96052
upperback 0.84153 -1.73719 5.69208
thorax -2.36406 -0.92102 1.03073
lowerneck 5.43517 -16.2137 -15.5477
upperneck 3.7727 -23.8732 23.5292
head 5.0668 -11.9874 8.25385
rclavicle 2.22639e-014 2.8625e-014
rhumerus -32.8553 47.3612 -85.2043
rradius 143.253
rwrist -34.111
rhand 69.072 -65.0431
rfingers 7.12502
rthumb 73.9796 0.0628901
lclavicle 2.22639e-014 2.8625e-014
lhumerus -49.026 -42.9817 103.874
lradius 141.54
lwrist 26.1407
lhand 9.63551 -37.9218
lfingers 7.12502
lthumb 34.7806 -11.3148
rfemur -9.1141 20.8641 22.063
rtibia 9.83573
rfoot -13.9318 -22.8682
rtoes -1.87538
lfemur -3.41876 -28.2552 -8.55041
ltibia 0.787422
lfoot -11.2053 37.8582
ltoes -5.95059
663
root 0.0586157 17.5521 8.46352 10.9023 -1.07345 -7.10455
lowerback 4.73775 -1.71933 9.08442
upperback 0.924102 -1.72386 5.92048
thorax -1.78703 -0.897544 1.16871
lowerneck 5.30051 -16.1688 -15.4201
upperneck 4.42527 -23.8261 22.8672
head 5.16654 -11.9312 8.01674
rclavicle 5.56597e-015 -8.90555e-014
rhumerus -27.2809 52.1388 -77.3435
rradius 143.625
rwrist -33.2978
rhand 68.7396 -60.32
rfingers 7.12502
rthumb 74.0909 3.69128
lclavicle 5.56597e-015 -8.90555e-014
lhumerus -46.3651 -47.0468 98.235
lradius 142.043
lwrist 24.9942
lhand 6.38079 -39.1207
lfingers 7.12502
lthumb 31.6861 -11.8523
rfemur -9.76341 21.1681 22.11
rtibia 10.0189
rfoot -13.7825 -22.9786
rtoes -2.23238
lfemur -3.96788 -27.8537 -8.00177
ltibia 0.806335
lfoot -11.1362 37.7883
ltoes -5.97558
664
root 0.0650022 17.5876 8.45132 11.2427 -1.20051 -7.50383
lowerback 4.18703 -1.66412 9.58158
upperback 0.977529 -1.70876 6.15289
thorax -1.42745 -0.880519 1.11991
lowerneck 5.3117 -16.0979 -15.2803
upperneck 4.55406 -23.6949 22.5028
head 5.10942 -11.8633 7.90697
rclavicle 1.47101e-014 4.13472e-014
rhumerus -19.0712 56.8042 -65.7778
rradius 144.199
rwrist -33.5849
rhand 67.4721 -54.0356
rfingers 7.12502
rthumb 74.4587 5.66603
lclavicle 1.47101e-014 4.13472e-014
lhumerus -42.6026 -51.5207 90.2444
lradius 142.723
lwrist 24.637
lhand 2.76407 -39.5119
lfingers 7.12502
lthumb 28.2351 -11.6192
rfemur -10.1844 21.3362 22.4392
rtibia 10.0117
rfoot -13.6164 -23.0262
rtoes -2.22075
lfemur -4.50614 -27.2634 -7.28909
ltibia 0.966592
lfoot -11.1141 37.473
ltoes -5.93926
665
root 0.0665459 17.6234 8.44168 11.4902 -1.41254 -7.26149
lowerback 3.95974 -1.60046 9.3059
upperback 0.9561 -1.66645 6.23829
thorax -1.30987 -0.856065 1.35013
lowerneck 5.40641 -16.0381 -15.2656
upperneck 4.42124 -23.5884 22.4708
head 5.02652 -11.8218 7.92403
rclavicle -2.5842e-014 5.88403e-014
rhumerus -8.30696 60.3728 -51.0683
rradius 144.535
rwrist -34.7577
rhand 65.6238 -48.6666
rfingers 7.12502
rthumb 74.8247 4.43454
lclavicle -2.5842e-014 5.88403e-014
lhumerus -37.6701 -55.6952 80.6902
lradius 143.455
lwrist 24.937
lhand -0.532308 -40.1746
lfingers 7.12502
lthumb 25.0804 -11.8016
rfemur -10.4562 21.5395 22.0109
rtibia 9.82117
rfoot -13.4339 -23.1749
rtoes -2.04712
lfemur -4.99777 -26.7296 -7.41041
ltibia 1.23717
lfoot -11.0898 37.2039
ltoes -6.04703
666
root 0.0664163 17.6529 8.432 11.619 -1.72051 -6.33796
lowerback 3.91923 -1.54281 8.30916
upperback 0.934217 -1.63637 6.11851
thorax -1.28572 -0.838688 1.76774
lowerneck 5.43921 -16.0562 -15.3665
upperneck 4.27607 -23.6036 22.5532
head 5.00432 -11.8369 7.96512
rclavicle -2.90226e-014 6.67916e-014
rhumerus 4.28885 63.2171 -34.0102
rradius 144.993
rwrist -37.266
rhand 61.7939 -43.6362
rfingers 7.12502
rthumb 74.8924 -4.72808
lclavicle -2.90226e-014 6.67916e-014
lhumerus -33.0747 -60.0999 71.1739
lradius 143.995
lwrist 27.1757
lhand -3.44928 -39.4998
lfingers 7.12502
lthumb 22.2827 -10.7645
rfemur -10.6036 21.8076 20.7608
rtibia 9.51049
rfoot -13.2436 -23.4237
rtoes -2.03706
lfemur -5.33334 -26.4712 -8.43044
ltibia 1.44888
lfoot -10.9737 37.1368
ltoes -6.38865
667
root 0.0745958 17.6637 8.41841 11.5037 -1.89307 -5.88235
lowerback 4.11402 -1.46751 8.09782
upperback 1.01251 -1.52942 5.95746
thorax -1.30955 -0.784143 1.7139
lowerneck 5.58975 -16.1121 -15.4911
upperneck 4.06978 -23.7066 22.9268
head 5.00488 -11.9033 8.09802
rclavicle 2.10712e-014 -3.97569e-014
rhumerus 14.6091 64.3055 -19.0656
rradius 145.059
rwrist -39.024
rhand 59.9885 -41.2058
rfingers 7.12502
rthumb 74.5983 -8.83365
lclavicle 2.10712e-014 -3.97569e-014
lhumerus -28.4071 -63.9812 61.8297
lradius 144.394
lwrist 29.7713
lhand -5.18669 -38.8712
lfingers 7.12502
lthumb 20.614 -9.94584
rfemur -10.4142 21.9467 20.1782
rtibia 9.20278
rfoot -13.0844 -23.4953
rtoes -2.01591
lfemur -5.24485 -26.3398 -9.06014
ltibia 1.43993
lfoot -10.8983 37.077
ltoes -6.41532
668
root 0.0841116 17.6603 8.40658 11.3226 -1.97489 -6.04679
lowerback 4.47465 -1.31766 8.70175
upperback 1.09062 -1.26555 5.79482
thorax -1.43866 -0.656062 1.2058
lowerneck 5.73081 -16.2686 -15.3437
upperneck 3.93239 -23.9452 23.3023
head 5.02231 -12.0289 8.17322
rclavicle 2.74323e-014 -1.19271e-013
rhumerus 19.2827 64.6529 -10.3841
rradius 144.899
rwrist -39.3848
rhand 59.6325 -40.3976
rfingers 7.12502
rthumb 74.5167 -9.27981
lclavicle 2.74323e-014 -1.19271e-013
lhumerus -24.5075 -66.8991 54.084
lradius 144.595
lwrist 31.626
lhand -6.56816 -38.7641
lfingers 7.12502
lthumb 19.2861 -9.70041
rfemur -10.1241 22.0718 20.409
rtibia 9.00663
rfoot -12.9785 -23.4942
rtoes -1.88976
lfemur -4.93367 -26.3667 -8.99615
ltibia 1.28006
lfoot -11.1248 37.1243
ltoes -5.64145
669
root 0.0877048 17.6553 8.40357 11.3244 -2.01224 -6.2634
lowerback 4.80975 -1.2614 9.14729
upperback 1.01564 -1.11702 5.70703
thorax -1.70844 -0.592864 0.87039
lowerneck 5.67482 -16.4166 -15.0059
upperneck 4.0597 -24.1401 23.219
head 5.05475 -12.11 8.06545
rclavicle -4.77083e-015 -2.06736e-014
rhumerus 18.8434 64.8163 -8.29852
rradius 144.866
rwrist -39.0066
rhand 60.3092 -41.572
rfingers 7.12502
rthumb 74.6653 -8.05877
lclavicle -4.77083e-015 -2.06736e-014
lhumerus -22.9711 -68.3718 49.4154
lradius 144.745
lwrist 32.1856
lhand -8.06842 -39.4544
lfingers 7.12502
lthumb 17.843 -10.253
rfemur -10.056 22.2378 20.6677
rtibia 8.89698
rfoot -12.8933 -23.6372
rtoes -1.85995
lfemur -4.78812 -26.7142 -8.75533
ltibia 1.11394
lfoot -11.5682 37.3758
ltoes -4.48591
670
root 0.0842604 17.657 8.41264 11.5921 -1.9301 -6.31275
lowerback 4.9204 -1.3928 9.05541
upperback 0.755973 -1.25267 5.79761
thorax -2.04545 -0.674591 1.03239
lowerneck 5.6546 -16.4004 -14.9673
upperneck 4.2806 -24.1325 23.0031
head 5.08736 -12.097 7.98988
rclavicle 1.31198e-014 -3.18055e-014
rhumerus 17.6077 64.7791 -8.90245
rradius 145.745
rwrist -38.2946
rhand 57.8047 -39.3403
rfingers 7.12502
rthumb 73.982 -14.4241
lclavicle 1.31198e-014 -3.18055e-014
lhumerus -26.9254 -67.4575 52.28
lradius 145.088
lwrist 31.2553
lhand -8.50997 -39.9383
lfingers 7.12502
lthumb 17.4181 -10.6987
rfemur -10.281 22.3567 20.6524
rtibia 8.80118
rfoot -12.7383 -23.9278
rtoes -2.22433
lfemur -4.96422 -27.3912 -8.54162
ltibia 0.961083
lfoot -11.8717 37.834
ltoes -3.66687
671
root 0.0784649 17.6627 8.43046 11.9673 -1.65444 -6.64225
lowerback 4.84936 -1.56851 9.20653
upperback 0.476972 -1.45402 6.0301
thorax -2.30531 -0.78801 1.21169
lowerneck 5.63563 -16.3598 -15.1313
upperneck 4.38871 -24.1066 22.9909
head 5.13664 -12.0816 8.00716
rclavicle 1.11319e-014 -2.54444e-014
rhumerus 7.13312 63.3711 -20.4951
rradius 145.697
rwrist -36.7647
rhand 60.0378 -39.8823
rfingers 7.12502
rthumb 74.609 -7.33562
lclavicle 1.11319e-014 -2.54444e-014
lhumerus -32.9931 -64.5335 59.4457
lradius 145.466
lwrist 29.3725
lhand -7.87344 -40.2417
lfingers 7.12502
lthumb 18.0306 -11.0574
rfemur -10.5791 22.3521 20.9712
rtibia 8.73666
rfoot -12.6318 -24.1688
rtoes -2.62453
lfemur -5.31626 -27.9694 -7.89524
ltibia 0.818293
lfoot -11.8272 38.2156
ltoes -3.7138
